<svg width="69" height="42" viewBox="0 0 69 42" fill="none" xmlns="http://www.w3.org/2000/svg">
<path d="M52.5063 19.3467V20.1359L52.7222 20.3542V26.3996L52.5063 26.6179V27.4072H55.5276V19.3467H52.5063Z" fill="#673918"/>
<path d="M31.7724 31.9579H25.1656C23.6051 31.9579 22.3269 30.6817 22.3269 29.0864V20.5389H30.876L31.7724 19.3298H19.5215V29.0528C19.5215 31.3198 21.3309 33.1502 23.5719 33.1502H31.7724V31.9579Z" fill="#673918"/>
<path d="M36.0056 21.966V19.3463H32.9678V20.1356L33.1836 20.3539V32.1591L32.9678 32.3774V33.1667H36.0056V23.3766H37.317V21.966H36.0056Z" fill="#673918"/>
<path d="M16.467 21.9663V19.3467H13.4292V20.1359L13.645 20.3542V26.3996L13.4292 26.6179V27.4072H16.467V23.3769H17.7951V21.9663H16.467Z" fill="#673918"/>
<path d="M14.0604 28.2804H2.40703C1.07901 28.2804 0 29.3719 0 30.7153C0 32.0588 1.07901 33.1503 2.40703 33.1503H14.0438C15.3718 33.1503 16.4508 32.0588 16.4508 30.7153C16.4674 29.3719 15.3884 28.2804 14.0604 28.2804ZM12.4336 31.958H4.03385C3.35324 31.958 2.80544 31.4038 2.80544 30.7153C2.80544 30.0268 3.35324 29.4727 4.03385 29.4727H12.4336C13.1142 29.4727 13.662 30.0268 13.662 30.7153C13.6454 31.4038 13.0976 31.958 12.4336 31.958Z" fill="#673918"/>
<path d="M0.000244141 19.3467V20.5558H8.88136V23.3433C8.88136 24.9219 7.61974 26.2149 6.04272 26.2149H0.000244141V27.424H7.65294C9.89397 27.424 11.7034 25.5936 11.7034 23.3265V20.5558H12.2512V19.3467H0.000244141Z" fill="#673918"/>
<path d="M61.3044 33.167C64.1763 33.167 66.8655 31.5885 68.1603 29.0025C69.4883 26.3996 69.2227 23.3097 67.4963 20.9588L54.3655 3.09133C52.9545 1.16017 50.8131 0.051854 48.4559 0.00147596C45.9658 -0.0489021 43.6252 1.19376 42.1478 3.20888L31.175 18.1376H32.6525L43.1936 3.79662C44.4054 2.15094 46.2646 1.19376 48.3065 1.19376C50.3483 1.19376 52.2075 2.13415 53.4193 3.79662L66.5501 21.6641C68.0275 23.6792 68.2433 26.2317 67.0979 28.4651C66.0023 30.6313 63.7447 31.9412 61.3376 31.9412H43.1106C42.43 31.9412 41.8822 31.387 41.8822 30.6985V29.4559H52.7221V31.068H55.5275V28.2636H39.0601V30.6985C39.0601 32.0419 40.1392 33.1335 41.4672 33.1335L61.3044 33.167Z" fill="#673918"/>
<path d="M46.5966 22.6548V20.5558H46.9784H51.311V19.3467H39.0601V20.5558H43.7745V22.6548V23.3265V23.3601C43.7745 24.9386 42.5129 26.2317 40.9359 26.2317H39.0601V27.4408H42.5461C43.5587 27.4408 44.4717 27.0713 45.1855 26.45C45.8993 27.0713 46.8124 27.4408 47.825 27.4408H51.311V26.2317H49.4352C47.8748 26.2317 46.5966 24.9554 46.5966 23.3601V23.3265V22.6548Z" fill="#673918"/>
<path d="M5.39531 39.885C5.0135 39.7339 4.5487 39.4316 4.3163 39.079C4.10049 39.4652 3.66889 39.7843 3.25388 40.0026L2.95508 39.6499C3.48628 39.3644 4.05069 38.995 4.05069 38.3401V37.702H4.5653V38.3401C4.5653 38.9782 5.11311 39.2805 5.61111 39.4988L5.39531 39.885ZM6.39132 41.9505H3.73529V40.2545H6.39132V41.9505ZM5.87671 41.5139V40.6743H4.23329V41.5139H5.87671ZM7.00553 39.0118H6.37472V39.9858H5.86011V37.5676H6.37472V38.5752H7.00553V39.0118Z" fill="#673918"/>
<path d="M14.4097 37.785C14.3599 39.2292 13.4469 39.8505 12.5505 40.1696L12.3015 39.7834C13.0817 39.4643 13.7623 38.9941 13.8619 38.2216H12.5339V37.785H14.4097ZM15.5884 42H15.0737V40.7909H12.8327V40.3711H15.5718V42H15.5884ZM16.2192 38.9773H15.5884V40.1024H15.0737V37.5499H15.5884V38.5239H16.2192V38.9773Z" fill="#673918"/>
<path d="M23.8385 37.7847C23.7886 39.1953 22.859 39.7495 21.9792 40.0853L21.7136 39.6991C22.4938 39.4136 23.2242 38.9602 23.3072 38.2213H21.9626V37.7847H23.8385ZM25.0337 41.9493H22.3444V40.2532H25.0337V41.9493ZM24.5357 41.5127V40.6731H22.859V41.5127H24.5357ZM25.0337 39.9846H24.5191V37.5664H25.0337V39.9846Z" fill="#673918"/>
<path d="M32.9188 39.7666H30.9434V37.7346H31.4414V38.3896H32.4374V37.7346H32.9354V39.7666H32.9188ZM34.0808 41.9496H31.4248V40.136H31.9394V40.6734H33.5662V40.136H34.0808V41.9496ZM32.4208 39.3467V38.8262H31.4248V39.3467H32.4208ZM33.5662 41.513V41.0932H31.9394V41.513H33.5662ZM34.7116 38.8933H34.0808V39.8673H33.5662V37.5499H34.0808V38.4399H34.7116V38.8933Z" fill="#673918"/>
<path d="M42.4473 40.1525C42.0655 40.0181 41.7169 39.6991 41.4845 39.3632C41.2687 39.7495 40.8371 40.0517 40.4221 40.27L40.1565 39.9174C40.6877 39.6487 41.2189 39.2625 41.2189 38.5908V38.2381H40.3723V37.8015H42.5137V38.2381H41.7169V38.6243C41.7169 39.2625 42.1651 39.5647 42.6631 39.783L42.4473 40.1525ZM43.6757 41.8989H40.8703V40.4212H41.3849V41.4623H43.6923V41.8989H43.6757ZM43.5761 40.7234H43.0615V39.0945H42.3311V38.6411H43.0781V37.5664H43.5927V40.7234H43.5761Z" fill="#673918"/>
<path d="M53.1877 40.1528H51.5609V40.9924H51.0462V40.1528H49.3032V39.7162H53.1711V40.1528H53.1877ZM52.8391 41.8992H49.851V40.5054H50.3656V41.4458H52.8391V41.8992ZM52.6731 39.3131H49.8842V37.701H52.6731V39.3131ZM52.1751 38.8933V38.1209H50.3656V38.8933H52.1751Z" fill="#673918"/>
<path d="M60.9229 39.9174C60.5577 39.783 60.1925 39.4808 59.9601 39.1281C59.7443 39.5144 59.3127 39.8166 58.8977 40.0349L58.6155 39.6823C59.1467 39.4136 59.6779 39.061 59.6779 38.3892V38.2045H58.8313V37.7847H60.9893V38.2213H60.1925V38.4228C60.1925 39.061 60.6407 39.3464 61.1387 39.5479L60.9229 39.9174ZM62.0683 41.9493H59.3625V40.2868H62.0683V41.9493ZM61.5703 41.5127V40.7066H59.8937V41.5127H61.5703ZM62.0683 40.0517H61.5537V39.0106H60.8067V38.574H61.5537V37.5664H62.0683V40.0517Z" fill="#673918"/>
</svg>
